<?xml version="1.0" encoding="utf-8"?>
<!-- Generator: Adobe Illustrator 16.0.2, SVG Export Plug-In . SVG Version: 6.00 Build 0)  -->
<!DOCTYPE svg PUBLIC "-//W3C//DTD SVG 1.1//EN" "http://www.w3.org/Graphics/SVG/1.1/DTD/svg11.dtd">
<svg version="1.1" id="Layer_1" xmlns="http://www.w3.org/2000/svg" xmlns:xlink="http://www.w3.org/1999/xlink" x="0px" y="0px"
	 width="1280px" height="1280px" viewBox="0 0 1280 1280" enable-background="new 0 0 1280 1280" xml:space="preserve">
<g>
	<path fill="none" stroke="#FFFFFF" stroke-miterlimit="10" d="M5.764,616.018c6.408,9.597,13.267,18.694,20.523,27.341
		c43.536,51.881,101.356,87.548,161.874,117.627c10.086,5.013,20.249,9.863,30.503,14.188c16.896,5.187,35.903,10.616,44.728,27.587
		c11.2,22.401,22.953,44.59,35.521,66.259c6.285,10.834,12.208,22.414,18.156,34.433C334,1003,419,1053,513,1078
		c51,14,76,64,90.479,112.363c10.86,10.862,23.758,21.044,34.619,31.905c14.934,14.934,31.226,29.868,43.916,47.687"/>
	<path fill="none" stroke="#FFFFFF" stroke-miterlimit="10" d="M11.194,614.054c6.499,9.763,13.485,19.011,20.905,27.792
		c37.098,43.906,85.047,76.148,136.477,102.028c10.286,5.176,20.71,10.097,31.215,14.807c19.478,9.46,38.485,12.176,59.528,16.927
		c4.073,1.357,8.146,4.074,9.503,6.789c11.37,25.286,23.25,50.402,36.115,74.914c6.433,12.256,12.417,25.336,18.479,38.836
		C339,989,417,1057,514,1067c59,6,75,72,98.981,119.291c10.861,10.861,23.079,20.364,33.94,31.226
		c13.576,14.934,27.152,29.868,39.595,45.517"/>
	<path fill="none" stroke="#FFFFFF" stroke-miterlimit="10" d="M16.594,612.348c6.525,9.825,13.528,19.103,20.972,27.889
		c7.445,8.787,15.338,17.089,23.625,24.942c33.147,31.419,72.594,55.694,114.818,75.326c10.557,4.908,21.286,9.526,32.135,13.893
		c19.949,8.991,41.671,7.634,63.393,10.349c9.503,1.357,15.612,8.824,18.328,16.971c6.109,23.079,13.576,45.565,22.475,67.256
		c4.449,10.845,8.933,21.888,13.447,33.296c4.515,11.409,7.479,26.057,10.952,41.079C353,1016,445,1045,528,1066
		c38,9,65,43,76.185,80.989c3.363,11.876,8.63,22.243,16.389,30.906s15.958,16.974,24.012,25.433
		c16.108,16.92,31.634,34.438,46.425,52.736"/>
	<path fill="none" stroke="#FFFFFF" stroke-miterlimit="10" d="M21.965,610.878c6.567,10.205,13.686,19.75,21.301,28.71
		c7.613,8.958,15.746,17.352,24.324,25.237c34.312,31.542,75.73,54.954,119.292,73.846c10.89,4.723,21.914,9.163,33.048,13.118
		c21.061,6.849,42.104,3.455,64.505,0.061c10.182-0.68,19.686,4.752,20.365,16.291c1.357,24.098,5.643,47.56,12.42,70.119
		c3.389,11.28,7.319,22.427,11.414,33.921c4.095,11.495,7.172,25.24,9.851,40.677C348,964,379,1015,431,1030c75,21,166,34,186,126
		c1,5,4,10,7.791,13.168c7.851,8.777,16.11,17.193,24.257,25.753c16.294,17.119,31.861,35.063,46.468,54.131"/>
	<path fill="none" stroke="#FFFFFF" stroke-miterlimit="10" d="M27.326,609.605c7.469,11.76,15.624,22.463,24.37,32.284
		c8.74,9.814,18.121,18.781,28.028,27.043c29.722,24.785,64.184,43.224,100.252,59.156c12.023,5.312,24.225,10.344,36.498,15.192
		c30.626,11.963,59.815,1.78,90.362-4.329c8.825-2.036,10.861,8.146,10.861,16.292c-0.814,31.226,3.286,60.306,11.345,87.513
		c4.03,13.604,7.935,28.014,11.058,44.796C346,1001,453,1039,552,1060c34,7,56,38,66.619,70.378
		c3.94,12.162,8.287,23.577,15.764,32.282c7.477,8.705,15.217,17.08,22.747,25.657c15.061,17.153,29.278,35.115,42.912,53.687"/>
	<path fill="none" stroke="#FFFFFF" stroke-miterlimit="10" d="M32.688,608.492c7.59,12.015,15.926,22.871,24.86,32.752
		c8.928,9.87,18.528,18.815,28.687,27.001c30.476,24.556,65.983,42.275,103.099,57.482c12.372,5.069,24.923,9.857,37.659,13.903
		c33.004,9.503,62.193-8.824,94.098-17.649c2.037-0.679,6.11,0.679,6.11,2.036c-3.168,28.284-2.508,55.116,1.417,80.575
		c1.962,12.729,4.742,25.115,7.871,37.609c3.129,12.493,6.609,25.095,8.784,39.823C351,947,387,1014,455,1029c72,15,157,27,177,110
		c1,6,5,12,9.442,16.738c7.402,8.563,14.981,16.846,22.298,25.375c14.632,17.06,28.207,35.106,40.877,53.804"/>
	<path fill="none" stroke="#FFFFFF" stroke-miterlimit="10" d="M38.062,607.505c7.252,10.958,15.104,21.023,23.416,30.275
		c8.311,9.249,17.122,17.729,26.411,25.559c27.867,23.487,60.033,41.118,94.396,55.295c11.455,4.726,23.154,9.067,35.024,13.093
		c24.36,7.226,50.834,3.832,73.914-7.03c14.255-6.108,41.408-25.115,40.729-16.29c0.136,24.845,1.684,49.798,4.953,74.365
		c1.634,12.283,3.7,24.471,6.233,36.5c2.534,12.029,5.537,23.9,9.048,35.552C351,906,362,959,400,998c39,41,92,28,142,39
		c51,12,79,55,96.965,98.861c6.219,12.086,14.502,21.893,23.134,31.178c17.263,18.572,33.11,38.652,47.17,60.732"/>
	<path fill="none" stroke="#FFFFFF" stroke-miterlimit="10" d="M43.458,606.605c7.434,11.263,15.563,21.541,24.2,30.924
		c8.634,9.375,17.797,17.899,27.476,25.716c29.04,23.449,62.746,40.552,98.548,54.146c11.934,4.532,24.104,8.659,36.566,11.796
		c35.181,6.371,67.085-11.957,95.595-32.322c7.467-4.751,14.255-7.467,23.08-8.146c-4.752,25.659-6.87,51.834-6.262,77.847
		c0.304,13.006,1.29,25.971,2.969,38.811s4.05,25.555,7.126,38.059C349,919,380,1020,465,1023c77,2,155,30,180.7,106.967
		c6.482,11.73,14.765,21.211,23.191,30.326c16.855,18.232,32.06,38.158,45.091,60.313"/>
	<path fill="none" stroke="#FFFFFF" stroke-miterlimit="10" d="M48.87,605.752c14.271,18.48,29.206,37.487,47.55,51.638
		c8.673,7.308,17.75,14.044,27.183,20.261c18.865,12.433,39.152,22.787,60.481,31.468c10.664,4.341,21.588,8.263,32.725,11.817
		c49.298,18.016,91.384-19.998,132.114-45.793c4.751-3.395,14.255-4.752,12.897,2.036c-8.485,47.178-12.388,93.846-7.127,138.479
		c1.315,11.158,2.903,22.42,4.654,34.024C358,901,364,956,406,992c36,30,82,27,125,33c53,8,101,41,117.428,92.032
		c4.323,10.748,10.844,18.462,17.389,25.924s13.026,14.776,19.217,22.327c12.381,15.103,23.599,31.156,33.749,48.11"/>
	<path fill="none" stroke="#FFFFFF" stroke-miterlimit="10" d="M54.297,604.907c11.559,15.252,24.457,30.866,39.793,43.894
		c7.223,6.463,14.735,12.536,22.533,18.236c23.394,17.101,49.359,30.847,76.851,41.369c8.259,3.054,16.65,5.562,25.115,7.735
		c56.343,13.985,99.108-31.495,145.947-55.253c6.109-3.395,10.861,5.431,9.503,10.86c-12.49,46.703-18.355,96.121-13.946,143.301
		c1.103,11.796,2.257,23.896,3.656,36.262C355,913,376,996,444,1006c80,11,177,17,208.303,102.817
		c5.712,9.571,12.496,17.262,19.32,24.608c6.823,7.347,13.232,14.945,19.261,22.846c12.058,15.799,22.597,32.805,32.812,49.846"/>
	<path fill="none" stroke="#FFFFFF" stroke-miterlimit="10" d="M59.72,604.023c13.604,19.531,31.253,35.822,48.235,50.862
		c8.77,6.91,17.949,13.164,27.476,18.858c19.052,11.388,39.493,20.533,60.807,28.209c10.658,3.837,21.533,7.308,32.629,10.22
		c56.927,9.81,95.62-42.459,141.779-64.181c11.54-4.752,9.503,21.722,7.467,33.261c-3.62,27.153-8.07,54.23-10.635,80.98
		c-1.282,13.375-2.093,26.669-2.093,39.85c0,13.18,0.811,26.247,2.772,39.17C353,909,386,999,462,1005c77,5,172,20,198.403,104.154
		c6.07,7.689,12.904,14.147,19.394,20.921c6.488,6.773,12.633,13.862,18.424,21.24c11.583,14.756,21.754,30.668,30.448,47.521"/>
	<path fill="none" stroke="#FFFFFF" stroke-miterlimit="10" d="M65.125,603.05c15.665,21.183,33.993,40.868,56.077,55.333
		c10.242,7.312,20.987,13.825,32.153,19.673c11.166,5.847,22.751,11.028,34.676,15.673c11.924,4.646,24.188,8.754,36.721,12.407
		c62.397,15.846,101.769-43.89,150.644-71.042c9.503-5.431,13.576,10.861,12.218,19.006c-7.467,44.123-15.952,87.906-16.885,130.587
		c-0.233,10.671,0.005,21.271,0.5,32.042c0.495,10.771,1.245,21.711,0.958,33.988C361,917,399,1002,470,1003
		c56,1.333,113.778,13.333,156.295,45.702c10.629,8.092,20.41,17.647,28.917,28.532c8.585,11.021,15.808,23.195,21.284,36.51
		c7.636,7.91,15.062,15.703,21.995,23.908c13.868,16.409,25.771,34.462,35.251,53.847"/>
	<path fill="none" stroke="#FFFFFF" stroke-miterlimit="10" d="M70.485,601.934c12.342,17.547,28.633,32.481,45.089,46.146
		c8.119,6.435,16.495,12.315,25.172,17.705c17.355,10.782,35.925,19.608,55.345,26.828c9.71,3.609,19.632,6.818,29.736,9.614
		c57.25,10.251,104.088-35.229,140.744-74.601c5.431-6.789,16.97-6.109,21.043,2.036c4.751,8.825,5.431,19.007,3.394,27.832
		c-8.824,48.196-16.461,96.223-14.509,142.297c0.488,11.52,1.36,23.043,2.388,34.857C366,901,391,990,467,997
		c51.333,4.667,109.333,10.667,152.338,37.829c10.751,6.79,20.733,15.294,29.42,25.34C657,1071,664,1083,672,1095
		c17,24,42,38,53.349,63.889c5.006,8.119,9.542,16.549,13.559,25.238"/>
	<path fill="none" stroke="#FFFFFF" stroke-miterlimit="10" d="M75.775,600.616c15.876,20.901,34.883,38.551,56.412,53.081
		c10.181,6.958,20.785,13.128,31.773,18.626c10.99,5.499,22.365,10.326,34.044,14.595c11.68,4.269,23.665,7.98,35.97,10.806
		c56.569,7.288,97.977-38.192,131.917-77.563c6.11-7.467,17.649-9.503,24.438-1.357c4.752,6.109,7.467,12.897,6.109,19.686
		c-4.412,49.893-13.916,100.125-14.425,149c-0.127,12.219,0.308,24.353,0.923,36.797C367,895,392,996,476,995
		c39-0.5,80.75,5,117.141,20.096c12.13,5.031,23.666,11.129,34.304,18.427C635,1039,642,1044,648,1051c25,33,46,62,79,88
		c5,5,6,11,9.613,17.119c1.599,5.489,3.9,12.35,7.549,20.597"/>
	<path fill="none" stroke="#FFFFFF" stroke-miterlimit="10" d="M80.953,599.03c16.129,19.771,33.778,38.779,55.97,52.122
		c10.135,6.764,20.664,12.726,31.584,18.008s22.231,9.886,33.844,13.925c11.611,4.039,23.526,7.503,35.814,9.774
		c57.131,4.685,95.145-44.189,129.086-83.561c8.146-9.504,22.401-2.037,27.832,7.466c8.824,15.613,10.182,33.262,8.146,51.59
		c-5.883,42.087-16.593,81.76-18.252,122.036c-0.415,10.069-0.264,20.176,0.195,30.636s-0.524,22.569-1.977,36
		C377,908,396,972,452,983c52.5,10.625,110.469,13.047,157.304,34.157c9.367,4.222,18.289,9.191,26.632,15.123
		C655,1051,669,1073,687,1093c16,19,38,29,55,47c7,8,12,19,8.087,29.645"/>
	<path fill="none" stroke="#FFFFFF" stroke-miterlimit="10" d="M85.973,597.105c15.182,20.339,34.868,37.31,55.976,50.785
		c10.1,6.566,20.492,12.335,31.254,17.43c10.762,5.096,21.896,9.521,33.314,13.383c11.418,3.861,23.137,7.099,35.266,8.915
		c48.762,1.103,90.848-32.839,111.892-75.604c5.43-9.503,16.291-19.007,27.152-13.576c28.51,13.576,28.51,50.232,25.117,78.063
		c-6.789,46.612-18.102,92.319-16.443,136.92c0.415,11.149-0.762,23.728-2.7,37.902C373,908,407,980,469,983
		c39,2.5,81.25,6.75,119.178,19.623c12.643,4.291,24.805,9.541,36.207,16.003C634,1025,643,1031,651,1041c28,39,58,65,99,93
		c10,7,17,19,13.393,31.977"/>
	<path fill="none" stroke="#FFFFFF" stroke-miterlimit="10" d="M90.774,594.759c16.49,19.291,34.14,36.94,55.579,49.193
		c10.039,6.324,20.257,11.846,30.792,16.701s21.426,9.048,32.592,12.683c11.165,3.634,22.629,6.596,34.52,8.065
		c29.317-0.149,55.791-13.046,77.513-30.695c19.686-16.97,19.686-52.269,46.838-56.342c38.693-6.109,50.232,44.802,43.444,76.027
		c-9.843,43.104-18.837,86.719-18.413,129.06c0.106,10.586,0.284,21.348-0.938,33.439C379,889,394,968,457,976
		c54.375,6.875,113.047,11.797,161.472,34.737c9.897,5.312,19.385,11.343,29.571,22.655C679,1070,711,1104,755,1129
		c11,6,23,18,21.016,32.5"/>
	<path fill="none" stroke="#FFFFFF" stroke-miterlimit="10" d="M95.299,591.907c22.826,27.574,52.015,49.975,85.241,63.473
		c10.283,4.528,20.91,8.407,31.805,11.765s22.088,6.05,33.708,7.323c51.958,1.354,84.542-39.375,108.979-81.461
		c5.431-8.146,18.328-7.467,27.153-4.073c29.189,12.897,38.692,45.48,35.298,76.028c-5.883,41.181-17.499,79.647-19.962,119.019
		c-0.616,9.843-0.66,19.742-0.341,29.963s-0.927,21.984-2.539,34.896C370,952,485,985,566,989c11.5,0.5,23,2.438,34.174,5.712
		s22.021,7.885,32.217,13.732C654,1030,672,1055,693,1079c28,31,81,35,94.77,77.322"/>
	<path fill="none" stroke="#FFFFFF" stroke-miterlimit="10" d="M99.469,588.456c21.372,24.236,47.845,45.28,77.59,59.102
		c9.294,4.646,18.714,8.741,28.369,12.307s19.547,6.601,29.652,8.991c52.07,9.682,89.405-31.726,108.412-75.17
		c8.146-17.649,29.868-14.934,44.802-6.788c27.831,16.97,38.692,48.196,32.583,78.743c-4.525,24.89-9.88,49.402-13.752,73.588
		c-1.936,12.093-3.5,24.104-4.406,36.04c-0.905,11.936-1.15,23.796-0.446,35.587C392,855,391,904,421,943c37,49,98,36,150,37
		c12.25,0.25,23.813,2.75,34.741,6.938c10.929,4.188,21.225,10.066,30.94,17.071C671,1056,716,1098,773,1126
		c11,5,20,14,25.54,24.531"/>
	<path fill="none" stroke="#FFFFFF" stroke-miterlimit="10" d="M103.208,584.304c35.282,43.322,86.872,71.833,143.892,77.263
		c48.875,5.431,72.633-37.335,92.319-76.027c14.255-27.832,53.626-10.182,69.918,11.54c14.934,20.364,14.934,46.159,9.503,67.882
		c-6.517,26.881-10.671,55.255-11.925,83.706c-0.627,14.225-0.529,28.469-0.181,42.795s0.948,28.734-2.043,45.236
		C392,885,406,941,451,968c24,14,51,12,78,7c31.5-6,61.75-0.5,88.355,12.717c8.98,5.144,17.556,11.144,26.259,22.223
		C666,1037,684,1066,714,1088c32,22,69,28,94.153,56.239"/>
	<path fill="none" stroke="#FFFFFF" stroke-miterlimit="10" d="M106.447,579.347c42.903,48.28,114.179,92.402,180.024,67.287
		c14.935-5.431,25.116-18.329,31.905-31.905c7.467-16.97,8.146-42.087,29.188-46.838c44.123-10.182,84.173,32.583,80.1,76.027
		c-4.978,45.707-15.688,89.302-16.643,133.399c-0.239,11.024,0.132,22.08,0.683,33.465C397,872,407,969,481,969
		c37,0,77,0.5,113.219,9.673c12.073,3.058,23.726,7.078,34.708,12.366C653,1012,670,1039,692,1064c31,34,76,41,115,66
		c3,3,7,5,9.287,7.621"/>
	<path fill="none" stroke="#FFFFFF" stroke-miterlimit="10" d="M109.127,573.484c34.114,38.529,79.595,63.645,133.221,73.828
		c50.912,8.824,68.561-35.978,88.246-73.313c14.255-25.116,49.554-8.824,69.239,5.431c28.51,21.722,40.05,57.699,29.868,89.604
		c-7.603,24.709-12.544,50.992-14.483,77.488c-0.969,13.247-1.188,26.548-1.072,39.905c0.116,13.356,0.566,26.77-1.458,41.454
		C403,862,405,900,428,930c36,47,96,33,146,34c11.25,0.25,21.813,2.625,31.774,6.555c9.961,3.93,19.322,9.413,28.169,15.882
		C672,1064,747,1100,822.773,1130.908"/>
	<path fill="none" stroke="#FFFFFF" stroke-miterlimit="10" d="M111.221,566.63c32.7,40.632,80.896,65.748,134.522,71.858
		c21.722,2.715,43.444-5.431,54.984-25.116c11.54-21.043,14.934-57.021,46.159-57.021c46.839,0.679,88.925,37.334,88.246,84.173
		c-0.453,51.138-14.783,101.671-14.833,151.602c-0.013,12.482-1.008,25.635-4.009,40.526C397,892,433,967,501,960
		c34.5-3.5,69.75-2.5,101.458,7.061c10.569,3.187,20.745,7.324,30.368,12.563C676,1055,746,1101,827.79,1124.283"/>
	<path fill="none" stroke="#FFFFFF" stroke-miterlimit="10" d="M112.729,558.715c37.979,45.832,103.824,83.167,164.239,63.481
		c24.438-8.146,24.438-40.729,40.729-57.021c29.868-32.583,80.779,0.679,104.538,28.51c14.255,18.328,22.401,41.408,16.292,62.451
		c-6.109,23.487-10.725,48.467-13.19,73.719c-1.233,12.626-1.928,25.32-2.003,37.929c-0.075,12.609,0.469,25.134,1.715,37.42
		C408,852,410,916,459,944c16,9,34,14,52,10c39.5-9,75.5-1,107.49,15.995c10.78,6.771,21.098,15.033,31.763,30.7
		C670,1030,692,1055,722,1076c34,23,74,26,109.548,41.879"/>
	<path fill="none" stroke="#FFFFFF" stroke-miterlimit="10" d="M113.719,549.715c32.237,44.649,87.9,69.086,143.563,67.729
		c16.291-1.357,30.546-11.54,35.977-26.474c8.146-19.007,16.97-42.765,42.086-43.444c60.415-0.679,120.83,52.948,105.896,114.041
		c-6.789,28.171-11.54,58.802-12.94,89.455c-0.7,15.326-0.562,30.657-0.188,45.93C429,817,423,835,420,855c-5,39,15,92,57,89
		c44-3.5,87,2.25,125.819,17.274c9.705,3.756,19.137,8.274,28.327,13.967c41.873,62.789,99.934,108.919,171.587,129.371
		c10.453,3.043,21.183,5.563,33.268,8.133"/>
	<path fill="none" stroke="#FFFFFF" stroke-miterlimit="10" d="M114.322,539.667c35.029,47.231,106.305,87.281,161.289,56.734
		c16.292-9.503,14.934-38.014,33.941-47.517c38.692-19.686,84.852,3.395,111.326,35.298c16.97,21.043,25.795,47.517,23.08,74.669
		c-2.715,25.795-6.024,53.966-7.721,82.392c-0.849,14.213-1.294,28.489-1.631,42.718c-0.336,14.229-1.298,28.674-5.537,44.276
		C419,865,419,929,465,933c53.75,5,108.672,11.172,156.239,32.275c9.539,5.285,18.748,11.652,27.895,25.063
		c25.244,47.108,66.992,75.699,113.995,94.271c11.751,4.643,23.83,8.659,36.383,12.362c12.584,3.727,26.941,7.966,41.82,11.89"/>
	<path fill="none" stroke="#FFFFFF" stroke-miterlimit="10" d="M114.731,528.685c31.226,46.673,100.465,83.329,152.734,58.213
		c14.934-6.788,16.97-29.189,32.583-39.371c40.051-26.474,90.961-1.358,118.793,30.546c20.364,21.722,32.583,50.232,29.868,80.1
		c-2.376,25.456-5.473,53.16-7.085,81.076c-0.806,13.958-1.241,27.97-1.562,41.902c-0.321,13.933-0.785,27.869-5.038,42.938
		C421,866,429,931,485,931c39.5,0,79.25,5.75,115.797,19.396c12.183,4.548,24.009,9.974,35.352,16.356
		c30.639,58.686,80.486,98.107,139.547,119.035c9.844,3.487,20.281,6.707,32.027,10.119c11.745,3.414,24.517,6.577,37.796,9.109"/>
	<path fill="none" stroke="#FFFFFF" stroke-miterlimit="10" d="M115.188,516.972c28.732,49.561,95.256,86.217,148.204,56.349
		c14.934-8.146,21.722-27.153,38.014-32.583c69.918-25.116,152.054,36.656,149.339,109.968c-0.339,23.419-2.63,48.111-4.465,72.962
		c-0.917,12.426-1.721,24.891-2.109,37.257s-0.362,24.632,0.38,36.66C436,835,420,886,457,911c32,22,69,15,106,22
		c12,2.25,23.75,5.063,35.114,8.58s22.342,7.74,32.797,12.81c35.316,55.208,81.833,104.447,142.256,127.495
		c10.07,3.842,20.996,7.305,33.837,10.939c12.84,3.635,26.893,6.58,41.846,8.447"/>
	<path fill="none" stroke="#FFFFFF" stroke-miterlimit="10" d="M115.917,504.798c20.536,47.48,68.732,59.02,116.928,67.844
		c21.722,4.073,35.977-12.897,50.911-25.116c41.408-33.262,99.107-6.788,135.763,23.08c22.401,19.686,42.765,45.48,38.692,75.348
		c-3.224,24.946-6.788,51.93-8.612,79.188c-0.912,13.629-1.389,27.328-1.172,40.875s1.129,26.943,2.582,40.074
		C443,832,436,862,449,887c27,49,93,30,139,45c9.5,3,18.75,6.5,27.708,10.489c8.868,4.716,17.443,9.921,25.39,17.915
		c25.269,50.397,67.024,89.418,117.22,111.196c12.549,5.444,26.175,10.249,42,15.118s33.126,8.697,51.267,10.929"/>
	<path fill="none" stroke="#FFFFFF" stroke-miterlimit="10" d="M117.104,492.449c20.028,48.29,74.333,68.654,123.208,67.296
		c16.971-0.679,28.51-16.291,44.802-23.08c58.378-24.438,124.902,9.503,159.521,60.415c16.292,23.079,25.795,50.232,19.007,78.742
		c-5.431,23.984-10.032,49.101-11.792,73.99c-0.88,12.445-1.05,24.834-0.802,37.068s-1.18,24.87-3.799,37.736
		C439,856,448,893,484,903c37,10,75.25,17.25,111.131,29.225c11.96,3.992,23.657,8.508,34.958,13.826C634,949,638,952,641,956
		c28,50,68.444,89.777,117.92,111.624c12.369,5.462,26.04,10.404,42.449,15.665c16.408,5.261,34.071,9,52.638,10.861"/>
	<path fill="none" stroke="#FFFFFF" stroke-miterlimit="10" d="M118.861,480.176c22.344,44.27,82.08,89.072,126.882,63.277
		c49.553-27.832,106.574-23.759,152.733,4.751c44.802,28.51,82.137,76.706,67.203,129.653c-5.77,20.704-9.291,42.978-10.002,65.39
		c-0.355,11.205-0.008,22.445,1.112,33.541c1.121,11.096,3.014,22.047,3.41,33.161C430,906,553,913,618,934
		c8.75,3,16.854,7.491,24.543,13.137c21.535,49.914,59.299,88.555,105.91,111.392c9.322,4.567,18.999,8.503,28.97,11.771
		C802,1081,829,1089,856.594,1090.796"/>
	<path fill="none" stroke="#FFFFFF" stroke-miterlimit="10" d="M121.271,468.16c17.219,45.426,68.13,80.045,112.932,69.184
		c51.59-12.219,102.501-25.116,150.697,0c50.911,26.474,92.319,76.028,84.173,137.121c-2.489,20.139-5.582,40.729-7.09,61.043
		s-1.433,40.352,2.414,59.384C445,884,539,911,609,928c10.25,2.5,19.63,6.545,28.383,12.117
		c25.385,48.677,63.03,90.759,110.073,115.075c9.409,4.864,19.193,9.017,29.331,12.369C803,1080,831,1086,859.663,1087.528"/>
	<path fill="none" stroke="#FFFFFF" stroke-miterlimit="10" d="M124.393,456.539c15.455,44.828,65.687,81.484,112.525,72.66
		c38.014-8.146,71.275-16.971,109.289-8.825c71.955,16.292,131.012,73.991,129.654,147.303c-0.453,20.817-3.243,42.765-5.028,64.412
		c-1.785,21.646-2.564,42.991,1.006,62.602C472,813,466,833,478,847c33.333,40.667,78.667,59.111,124.741,78.148
		c11.519,4.759,22.979,9.987,34.17,16.473C643,946,646,951,649,956c21,35.5,49.75,64.25,83.206,84.404
		c11.152,6.718,22.827,12.48,34.912,17.22C797,1072,829,1083,863.387,1084.271"/>
	<path fill="none" stroke="#FFFFFF" stroke-miterlimit="10" d="M128.291,445.429c13.593,44.397,59.074,81.733,106.591,72.229
		c47.517-9.503,93.676-10.861,137.121,6.788c67.202,27.832,126.259,93.677,109.968,169.704c-4.525,21.27-6.335,42.539-5.003,63.029
		c0.667,10.245,2.118,20.295,4.058,30.023c1.939,9.729,1.963,19.342,1.776,28.529C483,830,483,847,496,855c29,20,56,34,86,52
		c10,5.75,20.313,10.75,30.709,15.489s20.876,9.219,31.212,13.926c23.175,48.49,62.334,88.159,109.757,111.125
		c10.064,5.162,21.318,10.798,33.903,16.4C813,1076,841,1081,867.817,1080.939"/>
	<path fill="none" stroke="#FFFFFF" stroke-miterlimit="10" d="M132.964,434.896c10.957,42.033,49.649,83.441,94.451,75.295
		c95.713-16.97,196.178,7.467,242.337,94.355c24.438,46.16,12.219,95.035,8.146,145.266c-1.019,10.975-0.151,20.93,2.197,30.072
		s6.175,17.471,8.96,25.303C495,838,528,851,553,869c10,8,6,23,16,29c18.5,11,38.5,18.25,57.983,26.335
		c9.742,4.043,18.94,9.834,26.459,23.024c16.278,39.32,45.418,67.48,80.438,86.439c12.212,6.912,25.077,12.802,40.301,20.043
		C805,1068,839,1078,872.942,1077.451"/>
	<path fill="none" stroke="#FFFFFF" stroke-miterlimit="10" d="M138.381,424.963c8.254,39.748,44.232,81.155,86.318,75.725
		c104.538-12.219,217.9,22.401,258.628,124.223c17.649,46.159,6.11,91.641,4.073,138.479c-0.679,14.934,3.055,28.51,7.132,40.631
		C497,816,502,826,512,833c18,14,44,8,59,27c12,15,15,38,33,47c8.75,4.25,17.438,8.375,26.015,12.529
		c8.309,5.122,16.508,10.273,23.016,21.751c17.485,38.86,47.228,68.04,82.79,87.867c12.493,7.313,25.943,14.098,41.823,21.999
		C809,1067,844,1074,878.677,1073.738"/>
	<path fill="none" stroke="#FFFFFF" stroke-miterlimit="10" d="M144.502,415.615c5.527,36.198,32.68,75.569,72.051,76.927
		c75.349,2.037,154.091,2.037,213.827,52.269c59.057,49.553,81.458,127.617,65.845,207.039c-1.527,8.654-1.485,17.268-0.063,25.562
		s4.221,16.271,6.414,23.563C505,810,509,819,517,826c29,23,89,18,93,68c1.5,14,14.75,22.25,30.912,29.523C659,941,667,964,684,982
		c15,17,32.111,30.777,50.666,41.656c9.277,5.439,19.452,10.963,31.424,17.762C801,1063,844,1071,884.885,1069.76"/>
	<path fill="none" stroke="#FFFFFF" stroke-miterlimit="10" d="M151.27,406.842c3.511,34.789,25.912,73.481,62.568,76.197
		c91.64,6.109,192.784,8.146,251.162,92.319c38.692,56.341,44.802,118.114,39.371,184.637c-1.018,14.255,1.867,26.22,7.488,36.338
		C527,836,576,835,610,850c19,9,5,31,9,44c3,12,12.5,19.25,23.871,25.172c15.799,30.686,37.766,57.177,63.898,78.281
		c8.711,7.034,17.885,13.471,27.447,19.265C780,1048,834,1074,891.421,1065.518"/>
	<path fill="none" stroke="#FFFFFF" stroke-miterlimit="10" d="M158.61,398.613c2.959,32.157,17.215,73.565,51.834,76.959
		c82.137,8.825,166.988,5.43,229.439,66.524c59.736,58.378,71.955,139.836,74.669,221.294c1.018,27.491,13.745,43.79,32.905,53.988
		C572,830,601,832,627,843c24,10-5,35,1,51c4.5,14,14.75,22.75,24.392,37.661c16.354,28.252,38.809,51.253,64.978,69.153
		c8.723,5.967,17.858,11.366,27.318,16.205C788,1051,844,1068,898.154,1061.057"/>
	<path fill="none" stroke="#FFFFFF" stroke-miterlimit="10" d="M166.441,390.893c2.595,36.483,19.565,80.606,63.009,81.963
		c54.984,2.037,109.968,0,160.201,25.795c79.421,41.408,124.902,124.902,128.975,214.506c0.679,16.97,0.849,36.146,5.006,53.032
		s12.303,31.48,28.923,39.284c9.511,4.417,21.874,8.315,34.493,12.636c12.293,4.189,24.702,8.707,35.182,14.604
		s19.028,13.173,23.6,22.878s3.699,20.041-4.17,32.286c-4.33,8.562,0.255,15.592,7.479,21.54
		c12.322,34.719,34.228,61.479,61.575,81.719c9.116,6.746,18.837,12.769,29.01,18.118C786,1045,846,1065,904.991,1056.466"/>
	<path fill="none" stroke="#FFFFFF" stroke-miterlimit="10" d="M174.681,383.634c2.501,31.523,8.611,71.573,46.625,78.361
		c70.597,12.219,139.836,2.715,198.893,45.48c69.239,51.59,97.749,133.048,104.538,217.22
		c5.43,62.452,57.021,89.604,113.362,102.502c19.346,4.412,25.455,16.631,27.237,31.479c1.782,14.85-1.498,31.217-2.758,49.325
		c6.158,36.374,26.461,62.623,53.835,81.812c9.448,7.062,19.683,13.339,31.531,21.316C795,1045,854,1059,911.882,1051.878"/>
	<path fill="none" stroke="#FFFFFF" stroke-miterlimit="10" d="M183.251,376.788c0.719,32.939,8.865,73.668,48.915,79.777
		c63.808,10.861,124.901,1.358,179.886,37.335c86.209,57.699,112.684,153.413,126.938,251.84
		c8.146,54.305,64.488,53.626,104.538,67.882c18.667,7.128,26.134,20.704,28.935,36.571c1.4,7.934,1.633,16.439,1.488,24.949
		c-14.476,42.929,2.537,77.143,32.168,102.125c9.877,8.327,21.156,15.629,33.139,21.886C788,1043,855,1054,918.825,1047.458"/>
	<path fill="none" stroke="#FFFFFF" stroke-miterlimit="10" d="M192.078,370.293c2.075,29.252,2.075,68.623,36.694,77.448
		c54.306,13.576,107.253,8.146,158.843,27.152c109.968,40.729,132.369,167.667,160.879,269.49
		c8.825,30.546,36.656,46.159,67.203,48.195c26.813,1.697,48.026,14.425,60.668,33.178c6.322,9.376,9.941,20.937,10.924,33.705
		C687,885,668,911,681,936c5.167,10.5,11.556,19.75,18.921,27.912c7.366,8.162,15.709,15.236,24.783,21.384
		C779,1036,854,1050,925.842,1043.395"/>
	<path fill="none" stroke="#FFFFFF" stroke-miterlimit="10" d="M201.079,364.103c2.577,27.296-0.138,63.952,30.409,74.134
		c62.451,20.364,128.975,12.218,188.032,41.407c81.458,42.087,100.464,138.479,122.865,221.973
		c7.467,27.831,16.971,60.415,46.838,67.202c40.729,9.052,81.458,28.359,99.259,61.546c4.449,8.297,6.678,18.358,4.239,33.128
		C688,893,672,927,697,953c8,8,16.417,15,25.194,21.162c9.148,7.105,18.989,14.681,30.098,23.46C803,1041,870,1040,932.935,1039.887
		"/>
	<path fill="none" stroke="#FFFFFF" stroke-miterlimit="10" d="M210.179,358.164c-10.527,84.83,67.856,87.654,135.131,94.096
		c13.528,1.319,26.613,2.784,39.118,5.359c18.355,3.796,31.898,8.302,42.232,14.015c12.285,6.185,22.865,13.749,32.591,22.542
		c58.357,52.757,71.085,146.178,96.031,218.981c9.503,27.152,29.868,48.875,59.014,52.629c7.807,2.185,15.656,4.307,23.292,6.768
		c15.273,4.921,29.699,11.2,40.764,22.294c12.117,11.763,18.685,25.96,22.054,41.119C701,873,673,914,702,946
		c6.25,7.25,13,13.813,20.188,19.734c7.453,6.75,15.525,13.758,24.728,22.144C794,1037,863,1034,925,1033c5,0,10,3,15.079,4.148"/>
	<path fill="none" stroke="#FFFFFF" stroke-miterlimit="10" d="M219.307,352.418c5.393,23.368-4.111,55.951,20.327,69.527
		c25.116,14.255,52.099,19.177,79.761,22.231c9.22,1.019,18.516,1.829,27.844,2.709C380,452,416,454,446.265,471.189
		c8.166,5.983,17.329,13.658,26.064,22.467c52.406,52.853,61.571,142.456,89.063,210.676c4.751,11.54,10.861,21.723,19.544,30.246
		c11.409,9.8,24.409,15.065,37.815,19.309c13.407,4.241,27.153,7.806,40.389,12.896c4.752,2.036,9.504,4.073,12.897,7.467
		c8.994,7.297,15.91,15.485,21.319,24.353s9.313,18.413,12.282,28.425C706,836,706,844,705,853c-4,29-16,59-1,85
		c6.25,10,13.822,18.434,22.559,26.154C777,1026,857,1033,931,1029c6,0,11,4,16.201,6.364"/>
	<path fill="none" stroke="#FFFFFF" stroke-miterlimit="10" d="M228.352,346.751c3.136,33.108,3.136,75.194,47.937,83.34
		c11.116,1.782,22.581,3.298,34.212,4.769c11.631,1.47,23.429,2.894,35.207,4.49C388,453,441,446,474.366,480.779
		c8.681,6.476,16.607,13.998,23.593,22.787c6.985,8.789,13.031,18.844,17.953,30.384c26.474,63.13,25.116,143.23,76.763,193.78
		c7.018,4.397,14.654,7.533,22.463,10.313c15.617,5.557,31.854,10.067,45.922,17.736c7.032,3.835,13.524,8.46,19.125,14.399
		c8.485,7.467,15.273,15.782,20.778,24.744c5.504,8.963,9.726,18.572,13.077,28.627C715,861,690,900,713,933
		c5.833,8.833,12.461,17.007,20.029,25.884C776,1019,853,1029,922,1023c11-1,23,5,32.208,11.596"/>
	<path fill="none" stroke="#FFFFFF" stroke-miterlimit="10" d="M237.139,341.039c3.173,29.996,1.816,69.367,39.15,78.191
		c12.643,2.97,26.113,5.558,40.029,8.08c14.577,2.802,31.592,6.972,50.675,11.691C405,452,452,444,481.731,474.629
		c10.502,6.964,20.179,15.229,29.003,24.977c17.649,19.495,29.444,45.035,32.329,79.146c4.073,52.947,17.649,115.398,68.698,141.868
		c8.67,4.159,17.546,7.979,26.162,12.157c8.617,4.181,16.975,8.72,24.611,14.32c8.74,6.533,17.13,13.396,25.25,20.512
		c12.152,9.09,22.301,20.084,30.091,32.709c3.895,6.313,6.589,13.438,7.77,21.625c-2.734,27.793-16.918,56.678-14.136,83.306
		c0.928,8.876,3.74,17.501,9.49,25.751c37,73,120,95,198,87c15-1,30,8,41.968,16.846"/>
	<path fill="none" stroke="#FFFFFF" stroke-miterlimit="10" d="M245.512,335.207c4.982,13.426,7.019,27.681,7.019,42.616
		c0.679,21.043,18.328,33.261,37.335,37.334c12.728,2.715,26.773,5.621,43.645,10.221C373,439,414,440,456,449
		c15,2,30,9,37.497,23.167c10.074,7.181,19.407,15.608,28.046,25.371c17.278,19.526,28.817,44.728,31.703,77.82
		c3.394,48.196,10.182,105.215,55.255,131.509c7.244,3.75,14.814,7.014,22.439,10.109c7.625,3.097,15.304,6.023,22.771,9.078
		c7.467,3.394,15.612,7.467,20.363,13.576c7.044,8.062,14.086,16.101,21.146,24.106c6.763,7.04,12.811,14.484,18.152,22.316
		s9.978,16.051,13.917,24.642C732,838,718,864,718,891c-0.167,12.833,2.277,23.75,6.745,33.098
		c4.615,10.359,11.287,20.817,19.905,31.709C787,1013,863,1011,927,1012c16,0,31,10,40.394,23.9"/>
	<path fill="none" stroke="#FFFFFF" stroke-miterlimit="10" d="M253.351,329.231c8.005,15.33,8.005,31.621,11.398,48.592
		c4.073,16.292,15.613,26.474,31.226,31.225c11.37,3.394,24.119,6.854,40.844,12.538C379,436,424,438,469,442
		c17,1,38,9,41.375,28.714c9.429,6.798,17.94,14.716,25.283,24.032c7.343,9.315,13.516,20.027,18.267,32.416
		c21.722,58.378,1.358,146.624,72.973,173.946c12.558,5.938,25.456,11.37,37.674,18.158c9.503,5.43,16.971,12.897,23.759,21.043
		c6.194,8.4,12.483,16.642,18.873,24.736c5.497,7.317,10.791,14.54,15.645,22.055s9.266,15.32,12.999,23.806
		c-0.635,26.32-14.294,52.025-13.489,77.154C722.625,896.438,724.5,904.75,729,913c28,80,118,102,196,96c19-2,38,10,48.45,28.337"/>
	<path fill="none" stroke="#FFFFFF" stroke-miterlimit="10" d="M260.534,323.081c11.004,19.444,14.398,40.487,21.186,60.851
		c4.751,11.54,16.292,19.007,28.51,21.722C360,429,415,436,469,435c27-1,47,16,59.734,38.334
		c9.371,7.355,17.747,15.849,24.863,25.749s12.97,21.206,17.298,34.188c15.613,45.481-7.467,113.363,42.747,146.2
		c8.08,4.921,16.65,9.079,25.136,13.322c16.969,8.485,33.601,17.31,45.479,32.583c6.704,8.569,13.438,17.087,20.227,25.533
		s13.607,16.83,20.187,25.237c6.527,7.332,11.424,15.377,15.351,23.851c2.937,9.071,2.752,19.76-1.194,33.181
		c-4.413,13.411-7.869,27.367-8.973,41.22S730,902,734.803,916.594C751,965,799,990,848,999c45,8,108-10,131.192,39.535"/>
	<path fill="none" stroke="#FFFFFF" stroke-miterlimit="10" d="M267.234,317.671C283,338,282,367,299,386c53,57,135,36,206,47
		c21,3,25,28,40.917,40.44c8.438,7.324,15.827,15.706,21.893,25.375c6.065,9.669,10.807,20.626,13.946,33.099
		c11.54,44.123,5.43,96.392,34.799,134.369c6.533,7.126,14.189,13.274,22.976,18.403c8.787,5.128,18.705,9.238,29.792,12.18
		c8.315,10.691,16.705,21.31,25.188,31.835c8.483,10.526,17.06,20.962,25.749,31.29c8.479,8.146,15.135,17.27,20.678,26.996
		c4.555,10.247,7.996,21.099,4.948,35.658c-2.943,16.678-7.665,35.517-8.65,53.311c-0.493,8.897-0.174,18.223,1.637,28.391
		C756,988,853,999,925,997c26,0,50,17,59.708,41.784"/>
	<path fill="none" stroke="#FFFFFF" stroke-miterlimit="10" d="M274.458,318.144C297,344,299,389,335,403c49,19,101,18,152,21
		c22,2,37,16,49,36c4,7,11,12,17.55,16.37c10.188,8.103,19.268,17.084,26.919,27.12c22.955,30.107,33.055,69.695,21.651,123.458
		c-2.715,12.219,10.861,24.437,22.996,31.816c8.612,5.392,18.306,10.334,27.29,15.797c8.983,5.462,17.257,11.444,23.026,18.911
		c8.485,10.691,16.992,21.298,25.55,31.803s17.166,20.908,25.854,31.194c7.344,7.5,13.615,15.586,19.104,24.11
		c4.743,8.854,8.704,18.146,9.827,28.802c-2.384,15.31-7.576,31.465-10.297,47.417C732,913,772,968,827,984c35,10,69,3,104,6
		c27,3,49,22,59.096,47.483"/>
	<path fill="none" stroke="#FFFFFF" stroke-miterlimit="10" d="M280.301,317.114C300,340,309,371,333,391c52,43,119,18,181,32
		c16,4,22,18,30,31c5,7,13,11,19.322,16.629c9.938,7.265,19.171,15.417,27.511,24.657s15.785,19.572,22.149,31.196
		c14.255,26.474-3.394,56.342-0.679,86.209c0.679,15.613,7.467,30.547,20.364,39.371c9.843,7.128,20.534,12.05,30.462,17.904
		s19.092,12.643,25.88,23.504c7.298,11.539,14.817,22.729,22.554,33.602c7.741,10.878,15.699,21.438,23.872,31.717
		c6.212,7.259,11.678,14.952,16.594,22.96c4.173,8.311,7.796,16.936,7.07,27.513c-1.05,14.868-6.324,30.553-9.378,47.084
		C740,896,758,936,792,960c44,31,96,21,145,26c27,3,51,22,58.416,48.435"/>
	<path fill="none" stroke="#FFFFFF" stroke-miterlimit="10" d="M284.685,314.694C325,400,418,423,506,415c11-1,23,4,31,12
		c9,12,12,29,26.679,35.146c8.385,4.865,16.493,10.145,24.016,15.971c22.571,17.479,39.881,39.881,43.614,70.767
		c2.715,23.08-5.431,44.802-5.406,67.687c-0.683,12.969,8.121,23.275,18.982,30.063c16.971,12.896,36.656,20.364,47.517,39.371
		c7.128,11.709,14.521,23.09,22.168,34.163c7.652,11.077,15.56,21.847,23.718,32.335c8.42,10.887,15.887,21.068,23.354,32.608
		c5.091,7.467,7.842,15.921,5.034,26.648c-4.338,14.12-9.53,29.722-12.382,48.123C744,917,794,969,849,976s129-12,151.695,53.894"/>
	<path fill="none" stroke="#FFFFFF" stroke-miterlimit="10" d="M287.89,310.467C321,346,350,391,401,404
		c55,13,131-17,158.655,47.164c10.444,6.545,20.94,13.647,31.382,21.321c20.884,15.348,38.916,34.312,52.492,58.75
		c5.77,13.237,3.903,26.304,0.849,39.541s-7.297,26.639-6.279,40.559c0.68,13.576,8.824,21.722,18.498,29.02
		c9.672,7.297,20.873,13.745,27.661,23.929c13.034,19.549,26.257,38.528,39.839,56.888c6.79,9.179,13.673,18.208,20.688,27.094
		c6.59,7.515,12.594,15.399,18.114,23.583s10.559,16.665,15.219,25.374c-2.559,14.39-9.818,30.997-14.703,48.937
		C751,882,766,920,794,944c42,36,96,27,146,29c30,1,54,24,66.547,50.552"/>
	<path fill="none" stroke="#FFFFFF" stroke-miterlimit="10" d="M289.307,305.472C341,380,426,411,516,403c26-3,41,23,50.571,45.387
		c9.377,4.676,18.577,9.713,27.55,15.212s17.718,11.459,26.186,17.98c9.666,7.805,17.936,16.425,24.35,26.46
		c6.414,10.034,10.977,21.499,13.127,34.735c4.752,27.832-21.043,60.415,0.68,86.209c8.145,9.504,21.043,14.255,27.152,24.437
		c12.896,20.229,26.039,39.888,39.606,58.888c6.784,9.5,13.679,18.839,20.712,28.012c7.176,8.819,14.327,17.811,21.127,27.229
		c6.801,9.417,13.249,19.26,19.019,29.781C764,835,757,885,785,924c36,52,103,38,157,43c30,3,56,24,69.651,50.27"/>
	<path fill="none" stroke="#FFFFFF" stroke-miterlimit="10" d="M289.532,299.409C341,372,425,401,512,394c30-3,43,27,57,51
		c2,3,5,5,8.311,7.144c9.837,5.118,19.575,10.438,29.196,16.002c9.621,5.564,19.125,11.371,28.496,17.462
		c9.354,6.183,20.31,13.517,28.248,22.529c7.938,9.013,12.86,19.704,10.145,32.602c-2.375,13.916-8.824,27.831-12.304,41.322
		c-3.479,13.492-3.988,26.559,5.516,38.777c8.146,10.861,21.044,16.971,27.153,28.511c11.54,20.499,23.73,40.349,36.651,59.463
		c6.459,9.558,13.105,18.937,19.965,28.143c8.416,9.154,15.577,19.244,22.083,29.792c5.531,10.778,10.407,22.014,9.845,34.762
		C767,841,768,887,797,922c36,43,92,43,143,38c33-3,60,24,76.704,50.827"/>
	<path fill="none" stroke="#FFFFFF" stroke-miterlimit="10" d="M288.903,292.459C339,361,425,397,511,387c28-3,52,17,61.958,42.929
		c4.313,9.285,14.285,15.01,24.121,21.089c10.762,5.554,21.387,11.461,31.851,17.803c12.05,7.448,23.506,16.942,33.06,28.06
		c9.553,11.118,17.204,23.86,21.646,37.803c4.019,11.487-2.942,25.569-8.204,40.164c-5.26,14.594-8.824,29.698,2.037,43.274
		c6.109,7.467,14.934,13.576,19.007,21.722c10.861,21.178,22.618,41.625,35.303,61.256c6.341,9.816,12.918,19.432,19.741,28.845
		c11.52,12.958,21.161,27.026,30.052,41.484c4.446,7.229,7.05,15.153,7.821,23.757C782,835,766,879,798,915c39,47,98,35,150,38
		c32,2,56,26,73.712,51.421"/>
	<path fill="none" stroke="#FFFFFF" stroke-miterlimit="10" d="M287.785,284.807C339,358,431,385,518,380c27-2,50,20,57.186,45.762
		c3.493,9.716,12.486,15.745,21.715,21.815c10.187,5.496,20.254,11.292,30.185,17.455c6.487,5.35,14.831,10.465,23.49,15.776
		c25.979,15.934,54.809,33.622,44.878,64.669c-4.239,13.079-12.216,26.825-15.27,40.062c-2.716,10.861,2.715,23.079,10.182,31.904
		c9.503,12.219,18.328,23.759,24.438,38.014c5.516,12.813,11.636,25.169,18.306,37.092c6.678,11.932,13.905,23.429,21.647,34.534
		c7.151,9.416,14.043,19.023,20.792,28.742c6.749,9.72,13.354,19.551,19.938,29.414C797,787,798,790,797.152,793.771
		C784,830,777,873,801,907c32,45,93,35,141,38c35,2,66,24,84.734,53.259"/>
	<path fill="none" stroke="#FFFFFF" stroke-miterlimit="10" d="M286.264,276.42C331,352,420,375,503,370c35-2,63,23,76.005,53.785
		c5.672,10.949,17.248,17.842,30.083,24.048c9.853,4.832,19.865,9.847,29.672,15.371c29.418,16.569,57.037,37.824,71.292,69.389
		c2.716,6.789-0.679,15.613-4.919,21.88c-4.754,9.854-11.711,19.867-14.767,30.389c-0.679,3.394-2.036,7.467-0.679,11.54
		c17.649,32.583,35.299,63.808,50.911,97.071c5.176,10.776,10.939,21.079,17.238,30.969c10.998,14.566,21.347,29.256,31.465,44.026
		c5.059,7.386,9.648,14.854,11.956,23.88C794,822,780,854,794,882c28,57,102,56,159,58c33,1,63,23,78.844,52.551"/>
	<path fill="none" stroke="#FFFFFF" stroke-miterlimit="10" d="M284.586,267.414C330,351,428,366,515,364c33-1,57,26,68.928,55.844
		c5.927,11.47,17.746,18.53,30.87,24.756c10.246,5.382,20.637,10.676,30.837,16.228c30.604,16.653,59.496,35.617,77.314,65.655
		c9.504,14.934-15.612,29.189-19.006,47.177c-3.396,9.504-4.753,19.347-0.679,29.529c2.715,6.789,8.146,10.861,10.86,17.649
		c7.331,23.623,16.726,45.78,27.912,66.568c5.595,10.394,11.64,20.449,18.11,30.187c9.775,14.134,19.61,27.932,29.486,41.655
		s17.568,29.162,11.95,49.134C795,837,787,873,811,896c41,41,100,30,153,38c31,5,57,26,73.08,53.452"/>
	<path fill="none" stroke="#FFFFFF" stroke-miterlimit="10" d="M283.189,258.081C329,344,430,366,521,356c42-5,60,39,75.239,72.487
		c8.922,5.955,18.25,11.789,27.783,17.627c9.968,6.007,19.947,12.167,29.818,18.536c29.611,19.109,58.249,40.111,82.686,64.548
		c16.971,16.97-16.291,25.795-22.909,42.596c-3.904,7.636-5.262,16.122-1.527,25.286c13.745,32.074,22.909,64.911,38.087,95.935
		c5.063,10.346,10.794,20.488,17.602,30.352c7.63,10.006,15.135,19.971,22.587,29.905c7.453,9.935,14.854,19.839,20.489,31.086
		C801,826,794,887,840,907c36,16,75,9,115,15c37,6,68,30,87.469,61.098"/>
	<path fill="none" stroke="#FFFFFF" stroke-miterlimit="10" d="M282.181,248.473C310,306,369,351,433,348c59-2,138-11,159,63
		c3,11,14,18,24.355,23.79c7.583,4.421,15.355,8.69,23.195,12.926c39.202,21.181,80.118,41.545,107.837,76.052
		c10.183,12.897-8.146,27.152-16.366,38.771c-5.956,9.48-10.786,19.606-8.75,32.504c4.209,27.289,11.703,52.324,21.901,75.383
		c5.1,11.527,10.875,22.563,17.268,33.151c7.857,12.237,16.125,24.047,24.66,35.618c8.535,11.572,17.336,22.907,26.258,34.197
		C814,780,816,787,815,795c-8,32-12,67,10,92c29,34,78,22,118,26c44,4,84,28,105.059,66.765"/>
	<path fill="none" stroke="#FFFFFF" stroke-miterlimit="10" d="M281.721,238.74C308,296,362,345,425,342c71-4,158-5,177.672,79.522
		c9.313,5.635,19.265,11.008,29.498,16.343c51.163,26.676,109.334,52.415,127.436,102.194c4.752,12.897-29.867,24.437-28.51,47.517
		c0.679,13.576,2.396,26.643,5.05,39.221c2.388,11.32,5.533,22.243,9.364,32.784c3.829,10.542,8.344,20.702,13.465,30.493
		c6.062,12.899,13.529,24.439,21.674,35.301c7.807,9.503,15.443,19.007,22.984,28.5c7.541,9.492,14.987,18.975,16.717,32.379
		C816,816,807,850,828,877c30,38,79,23,120,27c45,4,82,32,105.449,70.156"/>
	<path fill="none" stroke="#FFFFFF" stroke-miterlimit="10" d="M281.875,228.99C306,295,369,349,440,336c77-15,149,7,170.043,83.509
		c9.428,6.176,19.509,11.964,29.881,17.595c51.856,28.153,110.971,52.384,131.9,101.597c4.752,10.183-30.547,29.189-29.188,54.646
		c-0.765,8.908-0.511,17.902,0.486,27.002c0.997,9.101,2.736,18.307,4.943,27.641c3.394,13.576,7.9,26.293,13.37,38.246
		c5.486,11.969,11.938,23.177,19.339,33.886c7.997,10.028,16.023,20.046,24.097,30.027c8.073,9.982,16.193,19.93,18.715,33.566
		C821,817,813,862,848,880c33,17,71,13,109,19c42,7,77,32,101.009,65.074"/>
	<path fill="none" stroke="#FFFFFF" stroke-miterlimit="10" d="M282.738,219.324C308,314,412,352,505,327c45-13,85,28,98.039,69.943
		c3.745,12.109,11.3,19.572,21.482,25.681c53.627,31.904,101.823,65.167,154.77,97.75c6.788,4.073,17.649,13.576,9.503,20.365
		c-20.364,17.649-35.977,38.692-38.183,65.845c-1.104,11.54-0.891,23.08,0.784,34.45c1.677,11.37,4.816,22.57,9.567,33.432
		c4.837,11.284,10.444,21.878,16.76,31.897c7.238,9.589,14.549,19.146,21.945,28.65c7.397,9.504,14.882,18.955,22.47,28.332
		C831,783,828,805,827,826c-2,55,66,60,107,60c52,0,96,30,128.255,68.817"/>
	<path fill="none" stroke="#FFFFFF" stroke-miterlimit="10" d="M284.336,209.728C296,254,323,292,364,315c51,29,105,3,157,3
		c44,0,75,41,86.834,80.777c6.11,12.506,17.471,19.091,28.805,25.71c56.669,33.096,112.671,67.036,163.018,109.462
		c4.751,4.751,3.394,12.897-2.716,16.292c-15.612,10.182-29.189,22.401-36.766,39.627c-4.303,14.338-5.32,29.612-3.284,45.225
		c1.559,12.399,4.246,24.076,7.917,35.094c3.68,11.026,8.341,21.396,13.858,31.194c8.479,10.721,17,21.501,25.613,32.271
		c8.612,10.77,17.316,21.528,26.158,32.204C837,802,821,856,866,867c72,18,153,14,200.236,79.5"/>
	<path fill="none" stroke="#FFFFFF" stroke-miterlimit="10" d="M286.692,200.315C297,271,364,341,437,321c75-20,161-10,176,79
		c1,4,6,7,8.328,10.678c7.29,4.344,14.507,8.812,21.694,13.371c21.561,13.679,42.848,28.189,64.994,42.698
		c26.474,18.328,53.626,30.547,82.137,45.48c14.934,8.146,30.547,25.116,14.934,40.729c-12.897,12.897-26.474,26.474-35.953,43.158
		c-3.181,7.383-5.604,15.029-6.887,22.889s-1.453,15.92,0.074,24.236c2.228,12.325,5.503,23.83,9.688,34.6
		c4.196,10.784,9.308,20.837,15.289,30.356c8.248,9.699,16.494,19.533,24.795,29.404s16.657,19.778,20.646,32.133
		C835,777,838,783,837,790c-3,39,15,77,58,77c66,0,134,16,175.114,72.142"/>
	<path fill="none" stroke="#FFFFFF" stroke-miterlimit="10" d="M289.879,191.346C297,245,331,298,386,316c44,15,83-7,126-14
		c54-9,90,41,104,88c2,5,3,12,8.521,16.333c9.39,6.449,18.686,12.803,27.935,19.048c46.245,31.222,91.311,59.695,141.09,83.454
		c14.256,6.109,38.014,17.649,29.868,35.298c-10.861,21.722-35.978,31.904-47.184,53.398c-7.122,14.144-11.533,29.078-8.479,45.709
		c2.079,12.176,5.246,23.524,9.355,34.131c4.125,10.623,9.199,20.51,15.189,29.887c8.048,9.223,16.107,18.607,24.232,28.046
		s16.315,18.93,20.551,30.482C850,798,839,849,884,856c70,10,150,11,189.96,76.758"/>
	<path fill="none" stroke="#FFFFFF" stroke-miterlimit="10" d="M293.832,182.78C290,258,362,335,435,311
		c67-22,153-23,176.185,56.401c4.819,16.444,10.629,30.55,20.575,38.973c55.327,34.917,110.198,68.292,167.897,104.496
		c15.611,10.182,40.729,27.152,31.225,44.802c-8.146,16.292-27.152,21.722-39.946,33.534
		c-10.266,11.768-16.564,25.354-18.771,39.438c-2.206,14.085-0.679,28.511,5.771,42.426c16.801,25.201,35.212,50.51,55.265,74.778
		c5.727,8.537,10.751,17.392,12.985,27.543C850,802,857,838,890,846c23.333,5,47.667,8.111,71.18,12.565
		c11.756,2.228,23.634,4.994,35.058,8.47C1017,875,1040,882,1055.807,898.786c8.213,7.768,15.559,17.113,22.032,28.493"/>
	<path fill="none" stroke="#FFFFFF" stroke-miterlimit="10" d="M298.474,174.395C300,219,316,264,356,292c31,21,69,27,102,13
		s70-28,104-10c35,19,48,56,61,91c2,6,6,11,10.384,15.355c10.204,7.166,20.404,14.338,30.651,21.447
		c51.235,35.545,103.632,69.485,163.452,92.82c14.255,6.109,25.116,23.759,11.539,37.335c-18.327,19.685-40.729,36.656-53.098,61.61
		c-4.177,9.071-7.358,18.277-8.313,27.76c-0.954,9.482,0.318,19.24,5.07,29.422c16.228,24.247,34.066,48.493,53.576,71.592
		c5.515,8.118,10.911,16.25,13.166,25.736C856,807,881,844,922,844c10.5,0.167,21.083,0.806,31.573,2.031
		c10.938,1.528,21.906,3.756,36.062,9.059c15.297,6.542,33.999,11.454,47.496,16.628c13.496,5.174,24.258,14.782,31.436,26.97
		c3.107,5.916,8.084,14.018,13.214,23.959"/>
	<path fill="none" stroke="#FFFFFF" stroke-miterlimit="10" d="M303.857,166.126C300,205,311,246,339,276c46,47,109,25,163,7
		c66-22,116,46,125.846,107.487c8.677,9.296,17.971,17.575,27.868,24.959c59.387,44.301,124.426,79.303,192.138,112.395
		c20.364,9.503,12.219,33.94-4.072,43.444c-21.723,12.219-46.16,24.437-55.154,49.384c-3.225,8.485-5.133,17.267-5.261,26.007
		c-0.128,8.739,1.527,17.438,5.43,25.752c12.05,19.516,25.456,38.861,40.146,57.37c7.345,9.254,14.118,18.677,18.848,28.771
		C859,789,870,829,907,832c11.667,1,23.389,2.306,34.994,4.082c12.12,2.163,24.128,4.801,41.691,12.488
		C1006,858,1030,863,1051.714,873.068c4.159,5.307,10.195,10.672,18.473,18.157c8.276,7.484,14.739,16.194,15.665,27.615"/>
	<path fill="none" stroke="#FFFFFF" stroke-miterlimit="10" d="M310.04,157.98C304,203,315,251,354,281c23,17,49,24,77,17
		c40-10,76-41,119-24s66,58,77.71,99.694c5.028,13.433,13.168,21.394,22.092,28.104c53.547,40.258,108.785,77.169,170.896,105.679
		c17.648,8.146,41.407,16.97,42.086,36.656c0.679,33.262-41.407,40.05-59.816,64.195c-9.59,12.342-15.871,25.748-12.816,42.379
		c10.409,31.678,27.605,61.395,49.453,87.97c10.924,13.287,16.008,28.682,21.468,42.839C871,808,895,827,922,827
		c11.333,0,23.139,1.194,36.914,5.245C991,852,1030,852,1064,868c8,4,13,10,18.569,15.7c5.848,8.271,13.265,19.241,10.1,34.184"/>
	<path fill="none" stroke="#FFFFFF" stroke-miterlimit="10" d="M316.982,149.954C305,192,315,240,348,271c38,36,91,25,134,2
		c69-37,138,31,151.38,99.457c6.19,13.364,14.942,21.944,24.36,29.4c56.512,44.738,116.46,83.558,186.718,109.013
		c12.896,4.752,33.94,12.219,29.188,29.189c-8.824,33.262-42.087,48.875-63.44,72.133c-9.362,11.871-16.32,24.598-13.944,40.55
		c8.146,23.759,20.364,45.82,35.605,66.004c7.621,10.093,15.542,19.881,23.429,29.3c9.353,31.478,30.278,49.966,56.116,61.21
		c8.612,3.748,17.771,6.691,27.229,9.042c9.84,4.675,22.582,11.069,36.315,16.674C981,838,987,839,993,842c35,15,121,7,104,62
		c-1,4,0,9,2.295,13.237"/>
	<path fill="none" stroke="#FFFFFF" stroke-miterlimit="10" d="M324.65,142.083C311,183,317,231,348,264c24,25,62,36,90,18
		c64-42,146-32,179,36c10,20,11,43,23.556,61.193c9.049,9.572,18.754,17.87,28.894,25.443
		c60.839,45.438,129.696,77.894,197.408,119.132c45.48,27.832-27.832,65.845-49.788,92.455
		c-7.889,8.016-13.003,18.192-14.785,28.799c-1.781,10.606-0.254,21.637,5.523,31.486c12.387,18.156,26.089,35.762,41.117,52.275
		c7.514,8.257,14.299,16.554,18.869,25.191c8.603,29.513,29.904,44.02,55.43,52.022c8.965,3.231,19.201,6.722,35.759,16.566
		C1002,846,1051,848,1099,861c9,3,19,11,15.169,21.598c-1.662,7.524-3.419,16.652-10.169,28.402c0,2,1,4,1.758,5.891"/>
	<path fill="none" stroke="#FFFFFF" stroke-miterlimit="10" d="M333.063,134.416C320,170,317,211,340,246c23,34,65,49,101,29
		c34-19,71-37,110-24c44,16,71,54,82.077,96.887c5.861,19.168,14.959,30.105,24.982,39.1
		c60.14,53.966,124.288,101.822,206.764,125.241c12.218,2.715,27.831,10.183,27.152,24.438c0,40.729-47.517,55.663-70.449,84.834
		c-8.124,11.049-13.384,22.758-10.33,36.674c7.297,23.249,18.922,43.698,33.644,61.729c7.361,9.016,15.018,17.567,22.722,25.613
		C879,764,890,784,911,792c9.25,3.75,19.188,7.016,35.354,17.733C978,829,1013,839,1050,845c21,3,40,10,62,13c14,2,16,18,9,28
		c4,9-2,18-9,24c-1,2,0,5,0.069,6.827"/>
	<path fill="none" stroke="#FFFFFF" stroke-miterlimit="10" d="M342.112,127.18C324,169,322,223,359,257c43,40,91,0,135-14
		c72-23,132,42,145.319,108.039c6.985,17.318,16.672,27.919,27.268,36.69c63.575,52.629,137.65,89.031,212.49,129.251
		c46.159,24.437-28.511,77.384-50.911,112.004c-2.715,4.073-4.752,8.825-5.431,13.577c-1.697,11.2-1.399,21.49,0.626,31.021
		c7.65,19.396,18.86,36.448,32.624,51.453c6.883,7.502,13.784,14.646,20.726,21.333c5.145,9.315,11.717,17.724,19.628,24.678
		S913.5,783.5,924.41,787.699C944,804,967,818,992,825c49,15,101,12,146,39c7,4-3,16-8.094,23.131
		c-1.844,10.131-7.781,21.393-11.656,29.916"/>
	<path fill="none" stroke="#FFFFFF" stroke-miterlimit="10" d="M351.524,121.126C325,161,326,220,364,254c19,16,44,20,66,7
		c42-24,91-43,138-19c39,20,62,59,74.379,98.668c4.644,13.799,10.839,22.338,17.464,29.69c13.251,14.705,26.45,29.413,40.705,42.763
		c48.876,47.517,114.72,68.56,177.172,91.64c14.255,4.751,32.583,12.219,29.188,29.188c-6.788,42.087-45.48,61.772-67.737,92.3
		c-4.798,7.319-8.46,15.123-10.326,23.778c-3.394,12.897-1.357,27.152,5.431,38.014c6.901,10.069,14.387,19.516,22.41,28.324
		c8.023,8.81,16.584,16.98,25.635,24.497c5.17,10.034,12.047,17.936,20.096,24.188c8.387,6.887,19.056,14.249,35.005,27.715
		C964,813,994,827,1028,832c39,5,78,5,113,21c11,4,2,20-2.857,28.97C1139,896,1132,908,1124.307,917.539"/>
	<path fill="none" stroke="#FFFFFF" stroke-miterlimit="10" d="M361.035,116.738C338,149,330,192,351,228c15,24,45,44,71,28
		c55-33,126-52,177-4c31,27,40,65,56.85,100.328c5.869,7.279,11.613,14.671,17.333,22.025c5.719,7.354,11.413,14.67,17.184,21.797
		c51.59,62.451,127.618,85.531,200.93,111.326c14.934,5.431,30.547,19.686,22.401,37.335
		c-15.613,31.904-41.408,54.984-64.488,80.779c-6.108,7.467-9.504,16.292-11.54,25.116c-4.073,17.649,1.357,36.656,12.897,49.554
		c6.563,7.467,13.52,14.613,20.852,21.38c7.332,6.766,15.038,13.151,23.096,19.098c6.243,10.632,15.114,19.197,28.229,31.203
		C949,802,986,818,1025,824c44,6,89,6,127,31c9,6-2,21-6.845,29.913c-1.095,11.913-7.533,24.738-14.911,33.39"/>
	<path fill="none" stroke="#FFFFFF" stroke-miterlimit="10" d="M370.52,113.8C341,147,333,205,368,237c15,14,38,19,57,9
		c43-22,89-46,137-28c51,19,75,70,93,120c1,5,4,10,7.812,14.505c6.084,8.548,12.181,17.083,18.51,25.349s12.891,16.26,19.905,23.727
		c52.948,54.305,122.866,79.421,195.5,99.107c12.218,4.073,29.188,11.54,25.795,25.795c-7.637,34.11-30.547,59.82-50.402,87.44
		c-6.618,9.207-12.897,18.625-18.158,28.638c-10.182,14.255-11.54,34.619-1.357,48.875c6.449,8.711,13.463,16.631,20.978,23.837
		c7.514,7.206,15.527,13.699,23.975,19.557C952,821,1059,830,1152,835c27,1,11,37,0,52c-6,11-14,20-15.94,32.331"/>
	<path fill="none" stroke="#FFFFFF" stroke-miterlimit="10" d="M379.952,111.946C353,138,343,179,361,213c12,23,39,37,63,25
		c53-26,119-57,173-12c31,26,42,65,56,101c3,7,6,14,10.795,19.619c7.581,9.895,15.368,19.496,23.404,28.752
		c56.25,64.794,124.675,112.692,219.709,125.996c10.861,1.357,25.795,6.789,25.795,17.649
		c-2.263,40.729-35.638,72.03-60.056,105.688c-4.884,6.732-9.409,13.557-13.257,20.572c-10.69,28.256,4.392,52.216,26.521,71.034
		c7.377,6.273,15.75,12.959,25.865,24.688C963,828,1073,815,1162,832c22,4,2,35-4,53.5c-2.75,9.75-9,19-16,26.5c-2,3-1,6-0.26,8.617
		"/>
	<path fill="none" stroke="#FFFFFF" stroke-miterlimit="10" d="M389.374,110.833C357,139,347,194,382,224c14,11,33,10,48,3
		c37-19,76-36,118-32c60,5,90,63,105.558,113.636c6.155,16.758,13.072,28.354,20.479,38.515
		c59.258,81.284,139.194,139.282,247.806,155.573c16.97,2.037,26.474,19.686,16.97,35.977c-17.819,29.02-36.02,55.367-54.029,82.477
		c-6.002,9.038-11.983,18.16-17.919,27.499c-0.001,14.253,3.053,26.646,8.437,37.473c5.384,10.826,13.098,20.087,22.416,28.077
		C947,811,1064,832,1164,818c17-3,21,17,17.909,29.911C1176.932,863.112,1169.25,875,1164.75,884s-11.25,17.5-15.75,26
		c-2,4-1,7-1.423,11.003"/>
	<path fill="none" stroke="#FFFFFF" stroke-miterlimit="10" d="M398.839,110.242C375,131,358,167,374,197c11,21,38,26,58,14
		c89-51,205-19,226.522,84.5c6.102,14.947,12.083,26.357,18.192,36.917c24.438,42.237,50.081,82.061,94.43,109.213
		c47.518,29.868,99.108,38.014,150.698,55.663c19.007,6.788,32.582,24.438,21.043,44.123c-16.292,27.492-34.11,52.693-48.875,79.612
		c-4.919,8.976-9.499,18.142-13.56,27.658c-4.077,12.214-3.444,23.709,0.436,34.144c3.88,10.434,11.006,19.809,20.353,31.113
		C951,820,1078,805,1178,819c19,3,7,29,1.842,41.846C1171,879.25,1164,895.5,1157,907c-2,4-5,8-3.284,13.057"/>
	<path fill="none" stroke="#FFFFFF" stroke-miterlimit="10" d="M408.488,109.862C386,129,370,161,384,189c7,14,25,16,37,12
		c85-35,201-33,235.408,67.23c5.656,12.57,10.443,21.954,14.912,30.777c8.939,17.646,16.783,36.05,25.155,53.021
		c48.195,97.071,153.412,122.187,250.482,148.661c22.401,6.109,10.183,33.262-0.679,46.838
		c-18.328,23.419-33.219,48.747-43.528,75.984c-3.434,9.083-6.354,18.381-8.691,27.926c-3.576,12.376-2.779,23.523,1.075,33.317
		C926,798,1056,825,1160,802c13-3,26,2,29,15c6,20-2,39-11,56c-2,16-14,26-19,40c-1,2,0,4,0.816,6.123"/>
	<path fill="none" stroke="#FFFFFF" stroke-miterlimit="10" d="M418.328,109.408C399,125,379,152,391,177c4,9,15,14,25,13
		c50-3,95-27,147-18c51,9,82,51,99.815,95.216c5.782,10.5,11.169,20.774,16.425,30.813c31.533,60.234,59.152,121.709,123.81,153.784
		c44.123,22.401,90.961,27.152,139.157,38.692c9.164,2.376,17.818,7.297,22.74,14.085c4.921,6.788,6.109,15.443,0.339,25.286
		C939,577,891,621,903,680c26,126,168,131,274,118c24-4,19,42,8.467,63.269c-1.967,12.231-5.717,20.981-9.978,29.628
		s-9.032,17.189-9.574,27.276"/>
	<path fill="none" stroke="#FFFFFF" stroke-miterlimit="10" d="M428.501,108.697C415,118,402,131,400,148c-3,18,12,36,30,32
		c80-20,183-34,226.088,52.586c5.696,9.27,10.181,17.28,13.914,25.086c21.722,44.802,36.656,90.961,67.203,131.012
		c53.626,71.276,137.12,84.173,220.615,101.143c10.521,2.376,18.327,8.485,21.891,16.461c3.564,7.976,1.343,18.907-8.212,31.431
		C945,577,905,613,909,664c11,140,174,133,279,132c15,0,14,24,12.301,36.644c-4.925,18.396-12.551,34.356-15.551,45.981
		S1176.5,901.5,1172,912c-1,1,0,3,0.028,5.176"/>
	<path fill="none" stroke="#FFFFFF" stroke-miterlimit="10" d="M439.121,107.734C428,115,418,125,414,137c-5,13,2,31,17,30
		c71-8,154-28,206.63,31.53c10.488,10.738,18.642,20.671,25.528,29.848c32.809,42.743,48.082,107.867,76.083,152.838
		c47.517,74.669,130.333,88.246,212.469,101.144c8.146,1.357,17.989,5.091,24.692,10.776s10.267,13.322,5.854,22.486
		C949,566,914,619,921,682c5,43,32,83,73,96c63,20,128,6,192,7c23,0,20,34,15.729,52.507c-4.042,15.158-7.993,28.876-11.354,40.79
		C1188.063,889.5,1183.25,900.75,1176,911c0,1,1,3,2.197,5.072"/>
	<path fill="none" stroke="#FFFFFF" stroke-miterlimit="10" d="M450.374,106.442C438,118,422,131,423,149c0,10,13,13,21,12
		c64-6,135-26,187.648,20.368c10.949,9.151,18.996,16.731,26.129,24.989c33.979,38.663,49.729,104.264,72.64,148.387
		c43.444,82.815,131.689,116.756,221.293,123.544c10.86,0.679,25.286,3.903,35.299,10.182c10.013,6.279,15.612,15.613,6.184,30.1
		C937,583,884,696,974,759c64,45,141,18,210,15c24-1,26,35,22.026,55.23c-3.077,16.252-7.745,31.874-10.495,44.582
		C1193.938,885.688,1189.5,897.75,1182,909c0,1,1,4,2.448,5.755"/>
	<path fill="none" stroke="#FFFFFF" stroke-miterlimit="10" d="M462.169,104.836C451,115,437,126,437,141s23,11,34,9
		c61-10,124-10,173.594,28.223c13.699,8.683,25.408,21.071,34.232,35.326c31.226,50.233,39.371,105.896,69.918,156.807
		c49.554,82.137,139.836,96.392,228.761,109.289c12.219,1.357,24.438,5.431,30.547,16.971C1009,502,1008,507,1006,511
		c-36,50-78,97-74,160c7,112,140,120,228,98c16-3,35-5,45,10c13,19,8,40,2.883,59.076c-4.676,15.215-7.064,27.536-9.914,39.002
		C1196,887.875,1192.5,898.5,1188,908c0,2,1,4,2.775,5.065"/>
	<path fill="none" stroke="#FFFFFF" stroke-miterlimit="10" d="M474.518,102.961C466,110,457,119,452,130c-4,13,11,13,19,13
		c47-1,97-11,141.408,10.643c16.127,6.982,27.146,11.921,36.466,17.807c55.917,35.312,72.718,131.024,103.265,190.082
		c47.518,92.319,148.66,101.144,242.337,116.078c12.219,2.036,20.364,9.503,23.419,18.667C1018,509,1009,519,1001,527
		c-38,43-71,95-61,154c18,101,141,103,222,83c18-5,40-7,48,14c6,15,7,31,4.516,45.657c-2.593,16.059-6.522,31.223-8.516,43.312
		c-0.938,11.219-4.25,22.531-10,33.031c-2,3-1,8,1.188,10.908"/>
	<path fill="none" stroke="#FFFFFF" stroke-miterlimit="10" d="M487.47,100.953C478,110,462,117,464,131c2,6,11,4,17,4
		c44,2,89-4,130.611,11.906c15.604,5.524,27.545,10.09,38.053,15.931c21.017,11.681,38.326,30.688,48.848,54.106
		c26.475,57.699,42.766,117.435,80.101,171.062c44.802,63.809,121.508,71.275,194.141,81.458
		c19.687,2.036,39.372,4.073,52.947,19.006c6.789,8.146-3.376,22.45-13.3,33.253C980,556,953,596,945,644c-9,54,29,110,83,116
		c18,2,34,6,52,8c28,2,54-11,82-16c14-2,29-3,41,7c20,18,20,47,13.316,71.378c-3.798,15.848-5.666,28.595-7.707,40.356
		c-1.172,11.016-3.859,22.016-7.609,32.266c0,2,1,4,2.689,5.2"/>
	<path fill="none" stroke="#FFFFFF" stroke-miterlimit="10" d="M501.034,98.974C493,105,474,117,484,123c27,15,60,6,90.822,11.036
		c22.958,3.883,40.696,8.286,53.608,11.322c82.502,13.664,98.761,135.054,133.211,203.954
		c30.547,61.772,89.604,95.034,156.807,107.932c31.056,5.601,88.458,2.418,109.204,21.956c6.916,6.512,9.758,15.549-3.451,31.925
		C976,565,918,651,974,719c47,58,127,45,192,28c12-4,25-6,35,2c30,26,22,70,11.637,102.844c1.188,8.655,1.491,17.586,1.051,26.513
		s-1.625,17.85-3.412,26.491"/>
	<path fill="none" stroke="#FFFFFF" stroke-miterlimit="10" d="M514.928,97.124C508,102,497,110,499,112c26,29,73,11,108.12,24.02
		c13.737,0.431,26.9,1.799,38.781,4.642c23.762,5.685,44.466,19.261,56.006,45.735c31.904,75.349,50.911,158.164,109.968,217.221
		c48.196,46.838,114.72,48.196,180.565,58.378c9.164,1.697,18.328,3.733,26.813,7.127c8.485,3.395,16.291,8.146,22.739,15.273
		C1047,492,1042,500,1037,505c-47,53-107,120-70,194c24,48,81,55,128,54c34-1,67-25,99-12c26,11,31,44,29.848,69.833
		c-1.232,17.789-4.373,34.906-4.832,48.151C1219.625,871.188,1218,883.75,1214,896c0,2,2,3,2.934,4.749"/>
	<path fill="none" stroke="#FFFFFF" stroke-miterlimit="10" d="M528.905,95.522C522,98,510,110,519,114c26,11,55,11,83.285,16.396
		c10.206,0.179,19.95,0.708,29.111,1.765c36.646,4.229,69.38,21.879,83.408,63.06c25.116,75.348,46.838,155.449,107.932,209.754
		c46.16,42.087,109.289,41.408,171.062,51.59c15.272,3.055,34.28,10.182,47.008,21.043c6.363,5.431,11.159,11.795,7.726,20.331
		C997,554,916,650,994,718c43,37,109,38,160,14c28-14,58,9,68,36s3,55,3.514,81.784C1226.2,860.745,1225.333,872,1222,884
		c-1,4,1,8,1.628,11.803"/>
	<path fill="none" stroke="#FFFFFF" stroke-miterlimit="10" d="M542.864,94.283c-12.257,6.178-16.608,13.271-8.006,17.971
		c11.783,5.585,28.492,8.228,48.31,11.948c16.048,1.053,28.58-0.228,40.985-0.021c35.879-0.533,70.625,12.322,85.899,49.996
		c38.015,89.604,57.699,198.893,152.055,249.804c46.159,24.438,95.714,19.686,147.304,30.546c11.539,2.037,22.4,5.431,31.733,10.861
		c9.334,5.431,17.141,12.897,22.571,23.08C1060,495,1056,501,1050,506c-46,47-107,110-71,178c31,59,114,70,172,42c24-12,54,3,68,27
		c17,28,13,60,10.953,91.35c1.085,12.098,0.38,24.817-2.953,38.65c0,3,1,5,3.312,6.918"/>
	<path fill="none" stroke="#FFFFFF" stroke-miterlimit="10" d="M552.792,91.493c-6.211,6.901-8.201,12.234-3.894,16.598
		c4.307,4.364,14.621,8.098,28.561,10.663c11.898,1.911,20.841,1.309,29.772,0.882c42.596-3.76,89.357,0.577,106.895,46.396
		c32.583,82.815,54.305,173.776,124.223,234.191c48.196,42.765,113.362,34.619,172.42,50.232
		c13.915,3.733,29.697,9.673,41.662,18.752c11.964,9.079,17.527,21.635,1.425,40.973C1019,544,982,584,978,635c-2,28,7,58,32,73
		c29,18,60,33,94,28c27-5,51-27,80-16c49,19,52,76,50.845,120.925c2.63,13.073,3.579,26.91,2.063,42.077"/>
	<path fill="none" stroke="#FFFFFF" stroke-miterlimit="10" d="M559.746,87.303c-0.39,12.206,0.485,20.767,16.773,25.809
		c6.375,3.351,13.382,3.367,18.135,2.688c50.911-4.751,111.326-8.146,126.938,52.269c33.941,135.763,108.61,276.956,269.489,274.92
		c18.329,0,39.372,4.752,56.342,14.764c8.485,5.006,15.952,11.328,21.556,19.031c7.679,9.201,2.206,19.324-7.179,30.187
		C1031,536,1000,568,988,611c-7,25-5,52,11,74c22,28,56,44,90,42c33-1,62-22,96-15c44,10,56,60,53.708,99.947
		c-0.86,13.975,0.842,24.139,2.099,34.133c1.916,9.232,2.795,18.896,2.515,28.891"/>
	<path fill="none" stroke="#FFFFFF" stroke-miterlimit="10" d="M566.338,82.878c3.346,12.981,9.809,20.227,18.218,23.809
		c4.667,0.966,9.418,3.003,13.491,3.003c47.517-4.073,104.539-10.861,124.223,45.48c30.547,87.567,54.984,179.886,129.654,240.979
		c48.195,38.692,108.61,31.226,166.31,44.123c14.594,3.055,28.51,8.146,40.475,15.698c11.964,7.551,21.977,17.564,28.783,30.513
		C1087,490,1085,493,1083,495c-50,44-119,104-82,175c15,27,43,49,73,49c42,1,87-31,128,0c36,27,41,71,42.202,111.141
		c3.263,10.688,5.569,21.959,6.394,34.401"/>
	<path fill="none" stroke="#FFFFFF" stroke-miterlimit="10" d="M572.517,78.2c1.772,14.52,14.003,26.756,29.06,25.682
		c45.345-7.768,105.082-5.052,124.088,45.18c27.152,71.954,45.479,147.303,95.034,209.075
		c46.838,57.699,116.756,66.524,188.031,73.991c20.025,2.376,42.256,9.334,59.651,21.298c8.697,5.982,16.188,13.218,21.602,21.788
		c3.837,6.628,3.783,14.222-3.984,22.543C1034,536,974,602,1014,670c22,38,68,57,111,36c67-34,126,38,124.882,102.971
		c2.064,15.755,5.865,28.518,8.614,42.015"/>
	<path fill="none" stroke="#FFFFFF" stroke-miterlimit="10" d="M578.255,73.274c15.041,39.811,62.558,19.446,95.141,22.161
		c29.869,2.716,46.839,29.189,56.343,54.984c37.334,103.859,67.202,239.622,196.177,262.702
		c45.254,8.146,95.638,10.559,133.853,31.376c9.554,5.204,18.348,11.56,26.114,19.446c8.034,6.131,13.169,13.064,16.225,20.543
		C1101,487,1101,489,1099,491c-48,39-103,87-86,155c8,31,36,60,68,58c41-3,82-25,122,2c31,21,43,53,48.827,87.125
		c2.534,17.564,8.063,29.946,13.242,42.561"/>
	<path fill="none" stroke="#FFFFFF" stroke-miterlimit="10" d="M583.612,68.115c2.217,8.992,7.648,19.854,15.793,19.854
		c54.306,0,114.72,3.394,135.763,61.093c37.336,102.501,62.451,237.585,191.426,256.592c54.871,8.485,109.742,15.084,152.436,46.904
		c8.54,6.366,16.594,13.741,24.074,22.38c5.082,5.748,6.427,12.154,1.195,19.007C1065,525,1021,559,1018,613c-2,38,23,84,61,77
		c89-14,188,22,183,122c2,3,5,5,7.855,6.926"/>
	<path fill="none" stroke="#FFFFFF" stroke-miterlimit="10" d="M588.643,62.743c3.295,12.328,14.835,21.152,27.054,19.795
		c65.167-8.146,121.508,16.97,134.406,86.888c23.08,123.544,100.464,241.658,238.264,240.979
		c36.316-0.339,75.009,15.274,101.822,42.087c8.948,8.948,16.586,19.173,22.444,30.811C1112,488,1111,493,1108,496
		c-41,35-88,74-81,133c4,32,30,66,65,57c79-22,173,20,171.539,108.166C1266,798,1269,800,1272.502,801.174"/>
	<path fill="none" stroke="#FFFFFF" stroke-miterlimit="10" d="M593.401,57.174c3.289,7.715,8.041,15.182,16.187,15.182
		c52.269,6.11,114.719,8.825,133.726,67.203c34.62,101.144,61.094,236.228,185.316,251.84
		c50.488,6.364,107.073,18.827,148.876,47.332c8.36,5.701,16.13,12.043,23.141,19.107c7.668,7.509,15.406,16.186,21.057,25.53
		C1123,489,1121,495,1117,497c-46,29-93,70-80,129c4,23,20,48,43,46c83-9,178,20,192.903,111.084"/>
	<path fill="none" stroke="#FFFFFF" stroke-miterlimit="10" d="M597.921,51.407c6.915,13.482,19.813,20.948,34.067,20.27
		c42.086-1.357,88.246,2.716,105.896,47.517c40.729,101.822,58.378,247.089,189.389,264.059
		c52.608,6.789,109.194,21.266,152.356,50.56c8.631,5.859,16.728,12.311,24.146,19.412c7.801,7.44,15.774,15.573,21.967,24.56
		c6.193,8.988,4.814,17.695-7.103,26.717C1074,525,1035,571,1045,624c5,22,22,42,44,41c75-6,159,15,185.414,93.123"/>
	<path fill="none" stroke="#FFFFFF" stroke-miterlimit="10" d="M602.226,45.43c22.975,30.32,63.024,13.349,93.571,24.889
		c23.079,9.503,38.014,31.226,48.195,53.626c42.766,94.355,56.343,235.549,179.887,250.482
		c56.851,6.789,123.777,24.183,168.63,59.145c8.974,6.996,17.063,14.693,24.022,23.17c7.193,8.735,12.826,18.194,17.085,28.27
		C1134,489,1133,493,1131,495c-40,30-86,63-78,119c3,23,22,39,44,38c68-3,139,22,176.241,81.34"/>
	<path fill="none" stroke="#FFFFFF" stroke-miterlimit="10" d="M606.335,39.236c8.683,12.755,22.259,19.543,37.872,18.864
		c46.159,0,86.889,20.365,105.217,63.13c40.049,91.64,52.269,231.476,171.061,244.374c55.663,6.109,115.908,25.625,162.407,59.227
		c9.3,6.72,18.05,14.004,26.104,21.857c8.535,7.9,16.082,16.583,22.612,25.874c6.53,9.291,12.043,19.19,8.45,27.437
		C1096,525,1049,569,1063,626c3,9,9,17,17,18c69,8,144,7,189.795,67.29"/>
	<path fill="none" stroke="#FFFFFF" stroke-miterlimit="10" d="M610.16,32.869c4.179,6.225,10.967,13.013,18.434,13.691
		c51.59,8.146,101.823,19.007,124.902,70.597c38.692,88.925,48.875,226.725,166.988,240.301
		c61.094,7.637,130.672,28.531,179.236,67.988c9.717,7.895,18.592,16.532,26.397,25.967c10.908,11.261,19.055,24.837,23.127,39.771
		C1148,493,1148,496,1147,497c-40,25-79,59-75,109c1,19,20,28,37,30c56,3,114,17,156.43,56.521"/>
	<path fill="none" stroke="#FFFFFF" stroke-miterlimit="10" d="M613.732,26.338c7.396,7.325,15.541,16.829,26.403,16.829
		c55.662-1.358,101.143,34.619,121.507,83.494c33.941,81.458,44.802,203.645,150.019,219.257
		c61.941,9.333,122.823,31.395,172.7,67.179c9.975,7.157,19.51,14.862,28.526,23.125c9.307,9.156,18.846,18.411,27.493,28.407
		s16.401,20.734,22.139,32.856C1160,503,1155,508,1149,511c-25,10-48,25-59,49c-10,20-24,54,3,62c57,17,122,10,168.356,55.067"/>
</g>
</svg>
